<svg width="12" height="12" viewBox="0 0 12 12" fill="none" xmlns="http://www.w3.org/2000/svg">
<g id="color">
<path id="Mask" d="M10.6666 5.33341H2.93329L6.46663 1.80008C6.73329 1.53341 6.73329 1.13341 6.46663 0.866748C6.19996 0.600081 5.79996 0.600081 5.53329 0.866748L0.866626 5.53341C0.799959 5.60008 0.733293 5.66675 0.733293 5.73341C0.666626 5.80008 0.666626 5.93341 0.666626 6.00008C0.666626 6.06675 0.666626 6.20008 0.733293 6.26675C0.799959 6.33341 0.799959 6.40008 0.866626 6.46675L5.53329 11.1334C5.66663 11.2667 5.86663 11.3334 5.99996 11.3334C6.13329 11.3334 6.33329 11.2667 6.46663 11.1334C6.73329 10.8667 6.73329 10.4667 6.46663 10.2001L2.93329 6.66675H10.6666C11.0666 6.66675 11.3333 6.40008 11.3333 6.00008C11.3333 5.60008 11.0666 5.33341 10.6666 5.33341Z" fill="#4789FF"/>
</g>
</svg>
