<svg width="12" height="15" viewBox="0 0 12 15" fill="none" xmlns="http://www.w3.org/2000/svg">
<g id="color">
<path id="Mask" fill-rule="evenodd" clip-rule="evenodd" d="M11.76 4.15529C11.82 4.21597 11.82 4.21597 11.82 4.27664C11.94 4.51934 12 4.76204 12 5.06542V9.91942C12 10.5868 11.64 11.1936 11.1 11.497L6.9 13.924C6.81 13.9543 6.705 13.9846 6.6 14.015C6.495 14.0453 6.39 14.0757 6.3 14.106C6.24 14.106 6.195 14.1212 6.15 14.1363C6.105 14.1515 6.06 14.1667 6 14.1667C5.88 14.1667 5.76 14.1667 5.7 14.106C5.52 14.106 5.28 14.0453 5.1 13.924L0.9 11.497C0.36 11.1936 0 10.5868 0 9.91942V5.06542C0 4.76204 0.06 4.51934 0.18 4.27664C0.24 4.21597 0.24 4.21597 0.24 4.15529C0.27 4.12495 0.285 4.09462 0.3 4.06428C0.315 4.03394 0.33 4.00361 0.36 3.97327C0.54 3.79124 0.72 3.60922 0.9 3.48787L5.1 1.06087C5.64 0.757492 6.36 0.757492 6.9 1.06087L11.1 3.48787C11.34 3.60922 11.52 3.79124 11.64 3.97327C11.64 4.03394 11.7 4.09462 11.76 4.15529ZM5.99948 2.03174C5.87948 2.03174 5.81948 2.03174 5.69948 2.09242L1.79948 4.33739L5.99948 6.76439L10.1995 4.33739L6.29948 2.09242C6.17948 2.03174 6.11948 2.03174 5.99948 2.03174ZM1.50052 10.4655C1.32052 10.3442 1.20052 10.1621 1.20052 9.91944V5.36882L5.40052 7.79582V12.6498L1.50052 10.4655ZM6.60026 12.7104L10.5003 10.4654C10.6803 10.344 10.8003 10.162 10.8003 9.91931V5.42936L6.60026 7.85636V12.7104Z" fill="#4A4F55"/>
</g>
</svg>
