<svg width="12" height="12" viewBox="0 0 12 12" fill="none" xmlns="http://www.w3.org/2000/svg">
<path fill-rule="evenodd" clip-rule="evenodd" d="M10.32 3.49147C10.365 3.53697 10.365 3.53697 10.365 3.58248C10.455 3.76451 10.5 3.94653 10.5 4.17406V7.81456C10.5 8.31513 10.23 8.77019 9.825 8.99773L6.675 10.818C6.6075 10.8407 6.52875 10.8635 6.45 10.8862C6.37125 10.909 6.2925 10.9317 6.225 10.9545C6.18 10.9545 6.14625 10.9659 6.1125 10.9772C6.07875 10.9886 6.045 11 6 11C5.91 11 5.82 11 5.775 10.9545C5.64 10.9545 5.46 10.909 5.325 10.818L2.175 8.99773C1.77 8.77019 1.5 8.31513 1.5 7.81456V4.17406C1.5 3.94653 1.545 3.76451 1.635 3.58248C1.68 3.53697 1.68 3.53697 1.68 3.49147C1.7025 3.46871 1.71375 3.44596 1.725 3.42321C1.73625 3.40045 1.7475 3.3777 1.77 3.35495C1.905 3.21843 2.04 3.08191 2.175 2.9909L5.325 1.17065C5.73 0.943117 6.27 0.943117 6.675 1.17065L9.825 2.9909C10.005 3.08191 10.14 3.21843 10.23 3.35495C10.23 3.40046 10.275 3.44596 10.32 3.49147ZM5.99961 1.8988C5.90961 1.8988 5.86461 1.8988 5.77461 1.94431L2.84961 3.62804L5.99961 5.44829L9.14961 3.62804L6.22461 1.94431C6.13461 1.8988 6.08961 1.8988 5.99961 1.8988ZM2.62539 8.22414C2.49039 8.13312 2.40039 7.99661 2.40039 7.81458V4.40161L5.55039 6.22186V9.86236L2.62539 8.22414ZM6.4502 9.90777L9.3752 8.22404C9.51019 8.13303 9.60019 7.99651 9.60019 7.81448V4.44702L6.4502 6.26727V9.90777Z" fill="#4C5157"/>
</svg>
