<svg width="15" height="15" viewBox="0 0 15 15" fill="none" xmlns="http://www.w3.org/2000/svg">
<g id="color">
<path id="Mask" fill-rule="evenodd" clip-rule="evenodd" d="M7.49992 14.1667C3.80295 14.1667 0.833252 11.197 0.833252 7.5C0.833252 3.80303 3.80295 0.833336 7.49992 0.833336C11.1969 0.833336 14.1666 3.80303 14.1666 7.5C14.1666 11.197 11.1969 14.1667 7.49992 14.1667ZM7.49992 2.04546C4.46962 2.04546 2.04537 4.4697 2.04537 7.5C2.04537 10.5303 4.46962 12.9545 7.49992 12.9545C10.5302 12.9545 12.9545 10.5303 12.9545 7.5C12.9545 4.4697 10.5302 2.04546 7.49992 2.04546ZM9.68174 9.25758C9.74234 9.31818 9.80295 9.31818 9.92416 9.31818C10.1666 9.31818 10.3484 9.19697 10.409 8.95455C10.5908 8.65152 10.4696 8.28788 10.1666 8.16667L8.10598 7.13637V3.86364C8.10598 3.5 7.86355 3.25758 7.49992 3.25758C7.13628 3.25758 6.89386 3.5 6.89386 3.86364V7.5C6.89386 7.74243 7.01507 7.92425 7.25749 8.04546L9.68174 9.25758Z" fill="#0661FC"/>
</g>
</svg>
