<svg width="14" height="15" viewBox="0 0 14 15" fill="none" xmlns="http://www.w3.org/2000/svg">
<g id="color">
<path id="Mask" fill-rule="evenodd" clip-rule="evenodd" d="M6.99992 14.1667C3.30295 14.1667 0.333252 11.197 0.333252 7.5C0.333252 3.80303 3.30295 0.833336 6.99992 0.833336C10.6969 0.833336 13.6666 3.80303 13.6666 7.5C13.6666 11.197 10.6969 14.1667 6.99992 14.1667ZM6.99992 2.04546C3.96962 2.04546 1.54537 4.4697 1.54537 7.5C1.54537 10.5303 3.96962 12.9545 6.99992 12.9545C10.0302 12.9545 12.4545 10.5303 12.4545 7.5C12.4545 4.4697 10.0302 2.04546 6.99992 2.04546ZM9.18174 9.25758C9.24234 9.31818 9.30295 9.31818 9.42416 9.31818C9.66659 9.31818 9.8484 9.19697 9.90901 8.95455C10.0908 8.65152 9.96962 8.28788 9.66659 8.16667L7.60598 7.13637V3.86364C7.60598 3.5 7.36355 3.25758 6.99992 3.25758C6.63628 3.25758 6.39386 3.5 6.39386 3.86364V7.5C6.39386 7.74243 6.51507 7.92425 6.75749 8.04546L9.18174 9.25758Z" fill="#000F37"/>
</g>
</svg>
