<svg width="10" height="11" viewBox="0 0 10 11" fill="none" xmlns="http://www.w3.org/2000/svg">
<g id="color">
<path id="Mask" fill-rule="evenodd" clip-rule="evenodd" d="M1.36364 6.40909H1.81818C2.09091 6.40909 2.27273 6.59091 2.27273 6.86364C2.27273 7.13636 2.09091 7.31818 1.81818 7.31818H1.36364C0.590909 7.31818 0 6.72727 0 5.95455V1.86364C0 1.09091 0.590909 0.5 1.36364 0.5H5.45455C6.22727 0.5 6.81818 1.09091 6.81818 1.86364V2.31818C6.81818 2.59091 6.63636 2.77273 6.36364 2.77273C6.09091 2.77273 5.90909 2.59091 5.90909 2.31818V1.86364C5.90909 1.59091 5.72727 1.40909 5.45455 1.40909H1.36364C1.09091 1.40909 0.909091 1.59091 0.909091 1.86364V5.95455C0.909091 6.22727 1.09091 6.40909 1.36364 6.40909ZM8.63636 3.68182H4.54545C3.77273 3.68182 3.18182 4.27273 3.18182 5.04545V9.13636C3.18182 9.90909 3.77273 10.5 4.54545 10.5H8.63636C9.40909 10.5 10 9.90909 10 9.13636V5.04545C10 4.27273 9.40909 3.68182 8.63636 3.68182ZM9.09084 9.13636C9.09084 9.40909 8.90902 9.5909 8.6363 9.5909H4.54539C4.27266 9.5909 4.09084 9.40909 4.09084 9.13636V5.04545C4.09084 4.77272 4.27266 4.5909 4.54539 4.5909H8.6363C8.90902 4.5909 9.09084 4.77272 9.09084 5.04545V9.13636Z" fill="#0661FC"/>
</g>
</svg>
