<svg width="16" height="17" viewBox="0 0 16 17" fill="none" xmlns="http://www.w3.org/2000/svg">
<path id="Vector" fill-rule="evenodd" clip-rule="evenodd" d="M14.4793 3.412H11.604V2.684C11.604 1.444 10.6614 0.5 9.44163 0.5H6.55846C5.33866 0.5 4.39609 1.444 4.39609 2.684V3.412H1.52084C1.0852 3.412 0.800049 3.7 0.800049 4.14C0.800049 4.58 1.0852 4.86 1.52084 4.86H2.24163V14.316C2.24163 15.556 3.17629 16.5 4.39609 16.5H11.604C12.8238 16.5 13.7585 15.556 13.7585 14.316V4.86H14.4793C14.9149 4.86 15.2 4.572 15.2 4.14C15.2 3.708 14.9149 3.412 14.4793 3.412ZM5.83767 2.684C5.83767 2.244 6.13074 1.956 6.55846 1.956H9.44163C9.86936 1.956 10.1624 2.244 10.1624 2.684V3.412H5.83767V2.684ZM11.604 15.044C12.0317 15.044 12.3248 14.756 12.3248 14.316V4.86H3.68322V14.316C3.68322 14.756 3.96837 15.044 4.40401 15.044H11.604ZM7.27926 7.772V12.14C7.27926 12.572 6.99411 12.86 6.55846 12.86C6.12282 12.86 5.83767 12.572 5.83767 12.14V7.772C5.83767 7.34 6.13074 7.044 6.55846 7.044C6.98619 7.044 7.27926 7.34 7.27926 7.772ZM10.1624 12.14V7.772C10.1624 7.34 9.86936 7.044 9.44163 7.044C9.01391 7.044 8.72084 7.34 8.72084 7.772V12.14C8.72084 12.572 9.00599 12.86 9.44163 12.86C9.87728 12.86 10.1624 12.572 10.1624 12.14Z" fill="#F94C61"/>
</svg>
