<svg width="10" height="9" viewBox="0 0 10 9" fill="none" xmlns="http://www.w3.org/2000/svg">
<g id="color">
<path id="Mask" fill-rule="evenodd" clip-rule="evenodd" d="M4.82 6.255C4.775 6.255 4.73 6.21 4.685 6.165L2.435 3.915C2.255 3.735 2.255 3.465 2.435 3.285C2.615 3.105 2.885 3.105 3.065 3.285L4.55 4.77V0.45C4.55 0.18 4.73 0 5 0C5.27 0 5.45 0.18 5.45 0.45V4.77L6.935 3.285C7.115 3.105 7.385 3.105 7.565 3.285C7.745 3.465 7.745 3.735 7.565 3.915L5.315 6.165C5.2925 6.1875 5.27 6.19875 5.2475 6.21C5.225 6.22125 5.2025 6.2325 5.18 6.255C5.135 6.3 5.045 6.3 5 6.3C4.955 6.3 4.865 6.3 4.82 6.255ZM8.6 5.85C8.6 5.58 8.78 5.4 9.05 5.4C9.32 5.4 9.5 5.58 9.5 5.85V7.65C9.5 8.415 8.915 9 8.15 9H1.85C1.085 9 0.5 8.415 0.5 7.65V5.85C0.5 5.58 0.68 5.4 0.95 5.4C1.22 5.4 1.4 5.58 1.4 5.85V7.65C1.4 7.92 1.58 8.1 1.85 8.1H8.15C8.42 8.1 8.6 7.92 8.6 7.65V5.85Z" fill="#0661FC"/>
</g>
</svg>
