<svg width="15" height="11" viewBox="0 0 15 11" fill="none" xmlns="http://www.w3.org/2000/svg">
<g id="color">
<path id="Mask" fill-rule="evenodd" clip-rule="evenodd" d="M14.1251 5.62109C14.0137 5.3984 11.6755 0.833336 7.50016 0.833336C3.3248 0.833336 0.986593 5.3984 0.87525 5.62109C0.819578 5.7881 0.819578 5.95512 0.87525 6.12213C0.881791 6.13194 0.896017 6.15693 0.91785 6.19529C1.26766 6.80976 3.57009 10.8542 7.50016 10.8542C11.6755 10.8542 14.0137 6.28915 14.1251 6.06646C14.1807 5.95512 14.1807 5.73243 14.1251 5.62109ZM7.50028 9.74085C4.49402 9.74085 2.54551 6.73458 1.9888 5.84384C2.48984 4.9531 4.49402 1.94683 7.50028 1.94683C10.5065 1.94683 12.455 4.9531 13.0118 5.84384C12.455 6.73458 10.5065 9.74085 7.50028 9.74085ZM7.50046 3.61705C6.27569 3.61705 5.2736 4.61914 5.2736 5.84391C5.2736 7.06869 6.27569 8.07077 7.50046 8.07077C8.72524 8.07077 9.72732 7.06869 9.72732 5.84391C9.72732 4.61914 8.72524 3.61705 7.50046 3.61705ZM7.5009 6.95736C6.88852 6.95736 6.38747 6.45632 6.38747 5.84393C6.38747 5.23155 6.88852 4.7305 7.5009 4.7305C8.11329 4.7305 8.61434 5.23155 8.61434 5.84393C8.61434 6.45632 8.11329 6.95736 7.5009 6.95736Z" fill="#0661FC"/>
</g>
</svg>
