<svg width="12" height="12" viewBox="0 0 12 12" fill="none" xmlns="http://www.w3.org/2000/svg">
<path fill-rule="evenodd" clip-rule="evenodd" d="M9.59999 4.13864C9.61022 4.15909 9.62045 4.17955 9.6409 4.2C9.68181 4.24091 9.68181 4.32273 9.68181 4.36364V9.27273C9.68181 9.96818 9.14999 10.5 8.45454 10.5H3.54545C2.84999 10.5 2.31818 9.96818 2.31818 9.27273V2.72727C2.31818 2.03182 2.84999 1.5 3.54545 1.5H6.81818C6.85909 1.5 6.9409 1.5 6.98181 1.54091C7.02272 1.54091 7.06363 1.58182 7.10454 1.62273L9.55909 4.07727C9.57954 4.09773 9.58977 4.11818 9.59999 4.13864ZM8.29073 3.95451L7.22709 2.89087V3.95451H8.29073ZM8.45436 9.68182H3.54527C3.29982 9.68182 3.13618 9.51818 3.13618 9.27273V2.72727C3.13618 2.48182 3.29982 2.31818 3.54527 2.31818H6.40891V4.36364C6.40891 4.60909 6.57254 4.77273 6.818 4.77273H8.86345V9.27273C8.86345 9.51818 8.69982 9.68182 8.45436 9.68182ZM4.36345 6H7.63618C7.88163 6 8.04527 6.16364 8.04527 6.40909C8.04527 6.65455 7.88163 6.81818 7.63618 6.81818H4.36345C4.118 6.81818 3.95436 6.65455 3.95436 6.40909C3.95436 6.16364 4.118 6 4.36345 6ZM7.63618 7.63636H4.36345C4.118 7.63636 3.95436 7.8 3.95436 8.04545C3.95436 8.29091 4.118 8.45455 4.36345 8.45455H7.63618C7.88163 8.45455 8.04527 8.29091 8.04527 8.04545C8.04527 7.8 7.88163 7.63636 7.63618 7.63636ZM5.18163 5.18182H4.36345C4.118 5.18182 3.95436 5.01818 3.95436 4.77273C3.95436 4.52727 4.118 4.36364 4.36345 4.36364H5.18163C5.42709 4.36364 5.59073 4.52727 5.59073 4.77273C5.59073 5.01818 5.42709 5.18182 5.18163 5.18182Z" fill="#4C5157"/>
</svg>
