<svg width="12" height="15" viewBox="0 0 12 15" fill="none" xmlns="http://www.w3.org/2000/svg">
<g id="color">
<path id="Mask" fill-rule="evenodd" clip-rule="evenodd" d="M11.182 5.43943C11.1517 5.40913 11.1365 5.37883 11.1214 5.34853C11.1062 5.31822 11.0911 5.28792 11.0608 5.25762L6.81834 1.01519C6.75774 0.954586 6.69713 0.89398 6.63653 0.89398C6.57592 0.833374 6.45471 0.833374 6.3941 0.833374H2.15168C1.12137 0.833374 0.333496 1.62125 0.333496 2.65156V12.3485C0.333496 13.3788 1.12137 14.1667 2.15168 14.1667H9.42441C10.4547 14.1667 11.2426 13.3788 11.2426 12.3485V5.68186C11.2426 5.62125 11.2426 5.50004 11.182 5.43943ZM6.9999 2.89392L9.18172 5.07574H6.9999V2.89392ZM2.15141 12.9546H9.42414C9.78778 12.9546 10.0302 12.7122 10.0302 12.3485V6.28792H6.39384C6.0302 6.28792 5.78778 6.0455 5.78778 5.68186V2.0455H2.15141C1.78778 2.0455 1.54535 2.28792 1.54535 2.65156V12.3485C1.54535 12.7122 1.78778 12.9546 2.15141 12.9546Z" fill="white"/>
</g>
</svg>
