<svg width="12" height="14" viewBox="0 0 12 14" fill="none" xmlns="http://www.w3.org/2000/svg">
<g id="color">
<path id="Mask" fill-rule="evenodd" clip-rule="evenodd" d="M11.3819 4.93931C11.3516 4.90901 11.3365 4.87871 11.3213 4.8484C11.3062 4.8181 11.291 4.7878 11.2607 4.75749L7.0183 0.51507C6.95769 0.454464 6.89708 0.393858 6.83648 0.393858C6.77587 0.333252 6.65466 0.333252 6.59405 0.333252H2.35163C1.32133 0.333252 0.533447 1.12113 0.533447 2.15143V11.8484C0.533447 12.8787 1.32133 13.6666 2.35163 13.6666H9.62436C10.6547 13.6666 11.4425 12.8787 11.4425 11.8484V5.18174C11.4425 5.12113 11.4425 4.99992 11.3819 4.93931ZM7.19985 2.3938L9.38167 4.57562H7.19985V2.3938ZM2.35137 12.4545H9.62409C9.98773 12.4545 10.2302 12.212 10.2302 11.8484V5.7878H6.59379C6.23015 5.7878 5.98773 5.54537 5.98773 5.18174V1.54537H2.35137C1.98773 1.54537 1.74531 1.7878 1.74531 2.15143V11.8484C1.74531 12.212 1.98773 12.4545 2.35137 12.4545Z" fill="#000F37"/>
</g>
</svg>
