<svg width="16" height="13" viewBox="0 0 16 13" fill="none" xmlns="http://www.w3.org/2000/svg">
<g id="Capa_1" clip-path="url(#clip0_2214_658)">
<path id="Vector" fill-rule="evenodd" clip-rule="evenodd" d="M13.816 0.100098H2.184C0.944 0.100098 0 1.0281 0 2.2361V10.7641C0 11.9721 0.944 12.9001 2.184 12.9001H13.824C15.056 12.9001 16.008 11.9721 16.008 10.7641V2.2361C16.008 1.0281 15.064 0.100098 13.824 0.100098H13.816ZM2.184 1.5241H13.824C14.112 1.5241 14.336 1.6681 14.48 1.9481L8 6.3561L1.528 1.9481C1.672 1.6681 1.888 1.5241 2.184 1.5241ZM1.456 10.7641C1.456 11.1961 1.744 11.4761 2.184 11.4761H13.824C14.256 11.4761 14.552 11.1961 14.552 10.7641V3.5881L8.44 7.7801C8.296 7.8521 8.152 7.9241 8 7.9241C7.848 7.9241 7.712 7.8521 7.568 7.7801L1.456 3.5881V10.7641Z" fill="#848D95"/>
</g>
<defs>
<clipPath id="clip0_2214_658">
<rect width="16" height="12.8" fill="white" transform="translate(0 0.100098)"/>
</clipPath>
</defs>
</svg>
