<svg width="17" height="17" viewBox="0 0 17 17" fill="none" xmlns="http://www.w3.org/2000/svg">
<g id="Capa_1" clip-path="url(#clip0_2214_656)">
<path id="Vector" fill-rule="evenodd" clip-rule="evenodd" d="M2.10045 0.700748L16.7671 15.3674C17.0322 15.6325 17.0322 16.0341 16.7671 16.2991C16.6306 16.4357 16.4298 16.4999 16.3013 16.4999C16.1727 16.4999 15.9719 16.4357 15.8354 16.2991L12.8314 13.3032C11.6988 14.1064 10.3655 14.4999 8.96792 14.4999C3.97194 14.4999 1.16872 9.03007 1.03218 8.76501C0.903663 8.5642 0.903663 8.3634 1.03218 8.1626C1.83539 6.76501 2.83137 5.56019 4.03619 4.49994L1.16872 1.63248C0.903662 1.36741 0.903662 0.965809 1.16872 0.700748C1.43378 0.435688 1.83539 0.435688 2.10045 0.700748ZM9.29724 9.76099L7.63459 8.09834C7.49804 8.62846 7.63459 9.16661 7.9639 9.49593C8.36551 9.82525 8.83137 9.89754 9.29724 9.76099ZM8.96792 13.1586C5.36953 13.1586 3.03218 9.56019 2.37354 8.49191C3.04021 7.29513 3.90768 6.29111 4.97595 5.42364L6.64663 7.15858C5.97997 8.22685 6.11651 9.62444 7.1125 10.4919C7.64262 10.9578 8.24503 11.2228 8.9117 11.2228C9.37756 11.2228 9.90768 11.0943 10.3093 10.8212L11.8434 12.3554C10.976 12.8855 9.97997 13.1586 8.97595 13.1586H8.96792ZM8.96792 3.82525C8.56631 3.82525 8.10045 3.8895 7.69884 3.96179C7.36149 4.02605 7.03218 3.82525 6.89563 3.49593C6.83137 3.09432 7.03218 2.76501 7.42575 2.69272C7.89161 2.55617 8.42173 2.49191 8.95989 2.49191C13.49 2.49191 16.2209 6.9899 16.7832 7.92163C16.8394 8.01802 16.8796 8.07424 16.8876 8.09031C17.0241 8.29111 17.0241 8.49191 16.8876 8.69272C16.4217 9.49593 15.9559 10.2911 15.3535 10.9578C15.2169 11.1586 15.0161 11.2228 14.8233 11.2228C14.6868 11.2228 14.5583 11.2228 14.4217 11.0943C14.1567 10.8935 14.0844 10.4277 14.3575 10.1626C14.8233 9.69673 15.2249 9.09432 15.5543 8.49191C14.8876 7.42364 12.5583 3.82525 8.95989 3.82525H8.96792Z" fill="#848D95"/>
</g>
<defs>
<clipPath id="clip0_2214_656">
<rect width="16.0643" height="16" fill="white" transform="translate(0.935791 0.5)"/>
</clipPath>
</defs>
</svg>
