<svg width="17" height="20" viewBox="0 0 17 20" fill="none" xmlns="http://www.w3.org/2000/svg">
<g id="color">
<path id="Mask" fill-rule="evenodd" clip-rule="evenodd" d="M7.7719 3.0689L5.68123 5.15957C5.31763 5.52317 4.77224 5.52317 4.40865 5.15957C4.04505 4.79598 4.04505 4.25059 4.40865 3.88699L8.0446 0.25104C8.09005 0.20559 8.1355 0.182866 8.18094 0.160141C8.22639 0.137416 8.27184 0.114691 8.31729 0.0692422C8.58999 -0.0216566 8.86269 -0.0216566 9.04448 0.0692422C9.13538 0.0692422 9.22628 0.160141 9.31718 0.25104L12.9531 3.88699C13.3167 4.25059 13.3167 4.79598 12.9531 5.15957C12.7713 5.34137 12.5895 5.43227 12.3168 5.43227C12.0441 5.43227 11.8623 5.34137 11.6805 5.15957L9.58988 3.0689V12.7042C9.58988 13.2496 9.22628 13.6132 8.68089 13.6132C8.1355 13.6132 7.7719 13.2496 7.7719 12.7042V3.0689ZM15.0438 9.97729C15.0438 9.4319 15.4074 9.06831 15.9528 9.06831C16.4982 9.06831 16.8618 9.4319 16.8618 9.97729V17.2492C16.8618 18.7945 15.6801 19.9762 14.1348 19.9762H3.22696C1.68168 19.9762 0.5 18.7945 0.5 17.2492V9.97729C0.5 9.4319 0.863595 9.06831 1.40899 9.06831C1.95438 9.06831 2.31797 9.4319 2.31797 9.97729V17.2492C2.31797 17.7946 2.68157 18.1582 3.22696 18.1582H14.1348C14.6802 18.1582 15.0438 17.7946 15.0438 17.2492V9.97729Z" fill="#0661FC"/>
</g>
</svg>
