<svg width="13" height="15" viewBox="0 0 13 15" fill="none" xmlns="http://www.w3.org/2000/svg">
<g id="color">
<path id="Mask" fill-rule="evenodd" clip-rule="evenodd" d="M12.26 4.15529C12.32 4.21597 12.32 4.21597 12.32 4.27664C12.44 4.51934 12.5 4.76204 12.5 5.06542V9.91942C12.5 10.5868 12.14 11.1936 11.6 11.497L7.4 13.924C7.31 13.9543 7.205 13.9846 7.1 14.015C6.995 14.0453 6.89 14.0757 6.8 14.106C6.74 14.106 6.695 14.1212 6.65 14.1363C6.605 14.1515 6.56 14.1667 6.5 14.1667C6.38 14.1667 6.26 14.1667 6.2 14.106C6.02 14.106 5.78 14.0453 5.6 13.924L1.4 11.497C0.86 11.1936 0.5 10.5868 0.5 9.91942V5.06542C0.5 4.76204 0.56 4.51934 0.68 4.27664C0.74 4.21597 0.74 4.21597 0.74 4.15529C0.77 4.12495 0.785 4.09462 0.8 4.06428C0.815 4.03394 0.83 4.00361 0.86 3.97327C1.04 3.79124 1.22 3.60922 1.4 3.48787L5.6 1.06087C6.14 0.757492 6.86 0.757492 7.4 1.06087L11.6 3.48787C11.84 3.60922 12.02 3.79124 12.14 3.97327C12.14 4.03394 12.2 4.09462 12.26 4.15529ZM6.49948 2.03174C6.37948 2.03174 6.31948 2.03174 6.19948 2.09242L2.29948 4.33739L6.49948 6.76439L10.6995 4.33739L6.79948 2.09242C6.67948 2.03174 6.61948 2.03174 6.49948 2.03174ZM2.00052 10.4655C1.82052 10.3442 1.70052 10.1621 1.70052 9.91944V5.36882L5.90052 7.79582V12.6498L2.00052 10.4655ZM7.10026 12.7104L11.0003 10.4654C11.1803 10.344 11.3003 10.162 11.3003 9.91931V5.42936L7.10026 7.85636V12.7104Z" fill="#0661FC"/>
</g>
</svg>
