<svg width="12" height="14" viewBox="0 0 12 14" fill="none" xmlns="http://www.w3.org/2000/svg">
<g id="color">
<path id="Mask" fill-rule="evenodd" clip-rule="evenodd" d="M10.2 1.54537H9V0.939313C9 0.575676 8.76 0.333252 8.4 0.333252C8.04 0.333252 7.8 0.575676 7.8 0.939313V1.54537H4.2V0.939313C4.2 0.575676 3.96 0.333252 3.6 0.333252C3.24 0.333252 3 0.575676 3 0.939313V1.54537H1.8C0.78 1.54537 0 2.33325 0 3.36356V11.8484C0 12.8787 0.78 13.6666 1.8 13.6666H10.2C11.22 13.6666 12 12.8787 12 11.8484V3.36356C12 2.33325 11.22 1.54537 10.2 1.54537ZM1.80052 2.75757H3.00052V3.36363C3.00052 3.72727 3.24052 3.96969 3.60052 3.96969C3.96052 3.96969 4.20052 3.72727 4.20052 3.36363V2.75757H7.80052V3.36363C7.80052 3.72727 8.04052 3.96969 8.40052 3.96969C8.76052 3.96969 9.00052 3.72727 9.00052 3.36363V2.75757H10.2005C10.5605 2.75757 10.8005 2.99999 10.8005 3.36363V5.18181H1.20052V3.36363C1.20052 2.99999 1.44052 2.75757 1.80052 2.75757ZM1.80052 12.4544H10.2005C10.5605 12.4544 10.8005 12.212 10.8005 11.8483V6.3938H1.20052V11.8483C1.20052 12.212 1.44052 12.4544 1.80052 12.4544Z" fill="#000F37"/>
</g>
</svg>
